<mxfile host="65bd71144e">
    <diagram id="6A8r4zag6CHXUNH3V_Vt" name="第 1 页">
        <mxGraphModel dx="1420" dy="3958" grid="1" gridSize="10" guides="1" tooltips="1" connect="1" arrows="1" fold="1" page="1" pageScale="1" pageWidth="827" pageHeight="1169" math="0" shadow="0">
            <root>
                <mxCell id="0"/>
                <mxCell id="1" parent="0"/>
                <mxCell id="4" value="JS主线程" style="swimlane;swimlaneFillColor=none;fillColor=#1ba1e2;strokeColor=#006EAF;fontColor=#ffffff;" vertex="1" parent="1">
                    <mxGeometry x="-800" y="-2260" width="210" height="320" as="geometry">
                        <mxRectangle x="-800" y="-2260" width="80" height="23" as="alternateBounds"/>
                    </mxGeometry>
                </mxCell>
                <mxCell id="8" value="" style="group" vertex="1" connectable="0" parent="4">
                    <mxGeometry y="40" width="170" height="260" as="geometry"/>
                </mxCell>
                <mxCell id="6" value="任务执行栈" style="swimlane;gradientColor=none;startSize=23;" vertex="1" parent="8">
                    <mxGeometry x="60" width="110" height="260" as="geometry"/>
                </mxCell>
                <mxCell id="9" value="同步任务 1" style="rounded=1;whiteSpace=wrap;html=1;fillColor=#647687;strokeColor=#314354;fontColor=#ffffff;" vertex="1" parent="6">
                    <mxGeometry x="10.523809523809524" y="40" width="80.95238095238095" height="30" as="geometry"/>
                </mxCell>
                <mxCell id="14" value="异步任务 A" style="rounded=1;whiteSpace=wrap;html=1;fillColor=#60a917;strokeColor=#2D7600;fontColor=#ffffff;" vertex="1" parent="6">
                    <mxGeometry x="10.523809523809524" y="90" width="80.95238095238095" height="30" as="geometry"/>
                </mxCell>
                <mxCell id="15" value="异步任务 B" style="rounded=1;whiteSpace=wrap;html=1;fillColor=#60a917;strokeColor=#2D7600;fontColor=#ffffff;" vertex="1" parent="6">
                    <mxGeometry x="10.523809523809524" y="140" width="80.95238095238095" height="30" as="geometry"/>
                </mxCell>
                <mxCell id="16" value="同步任务 2" style="rounded=1;whiteSpace=wrap;html=1;fillColor=#647687;strokeColor=#314354;fontColor=#ffffff;" vertex="1" parent="6">
                    <mxGeometry x="10.523809523809524" y="190" width="80.95238095238095" height="30" as="geometry"/>
                </mxCell>
                <mxCell id="22" value="" style="shape=singleArrow;direction=south;whiteSpace=wrap;html=1;gradientColor=none;" vertex="1" parent="6">
                    <mxGeometry x="45.333333333333336" y="170" width="8.095238095238095" height="20" as="geometry"/>
                </mxCell>
                <mxCell id="23" value="" style="shape=singleArrow;direction=south;whiteSpace=wrap;html=1;gradientColor=none;" vertex="1" parent="6">
                    <mxGeometry x="45.333333333333336" y="70" width="8.095238095238095" height="20" as="geometry"/>
                </mxCell>
                <mxCell id="18" value="" style="shape=singleArrow;direction=south;whiteSpace=wrap;html=1;gradientColor=none;" vertex="1" parent="6">
                    <mxGeometry x="45.33000000000004" y="120" width="10" height="20" as="geometry"/>
                </mxCell>
                <mxCell id="5" value="宿主环境（浏览器/Node.js）" style="swimlane;swimlaneFillColor=none;fillColor=#1ba1e2;strokeColor=#006EAF;fontColor=#ffffff;" vertex="1" parent="1">
                    <mxGeometry x="-480" y="-2260" width="210" height="320" as="geometry"/>
                </mxCell>
                <mxCell id="30" value="fs.readFile('path', 'utf8', cbA)" style="rounded=1;whiteSpace=wrap;html=1;gradientColor=none;" vertex="1" parent="5">
                    <mxGeometry x="20" y="60" width="170" height="40" as="geometry"/>
                </mxCell>
                <mxCell id="31" value="setTimeout(cbC, 0)" style="rounded=1;whiteSpace=wrap;html=1;gradientColor=none;" vertex="1" parent="5">
                    <mxGeometry x="20" y="130" width="170" height="40" as="geometry"/>
                </mxCell>
                <mxCell id="24" value="callback queue 任务队列" style="swimlane;gradientColor=none;" vertex="1" parent="1">
                    <mxGeometry x="-800" y="-1900" width="530" height="110" as="geometry"/>
                </mxCell>
                <mxCell id="27" value="cbC" style="rounded=1;whiteSpace=wrap;html=1;gradientColor=none;arcSize=0;" vertex="1" parent="24">
                    <mxGeometry x="20" y="50" width="70" height="30" as="geometry"/>
                </mxCell>
                <mxCell id="34" value="cbA" style="rounded=1;whiteSpace=wrap;html=1;gradientColor=none;arcSize=0;" vertex="1" parent="24">
                    <mxGeometry x="120" y="50" width="70" height="30" as="geometry"/>
                </mxCell>
                <mxCell id="50" value="" style="endArrow=classic;html=1;exitX=1;exitY=0.5;exitDx=0;exitDy=0;entryX=0;entryY=0.5;entryDx=0;entryDy=0;" edge="1" parent="24" source="27" target="34">
                    <mxGeometry width="50" height="50" relative="1" as="geometry">
                        <mxPoint x="250" y="-160" as="sourcePoint"/>
                        <mxPoint x="300" y="-210" as="targetPoint"/>
                    </mxGeometry>
                </mxCell>
                <mxCell id="28" value="委托宿主环境" style="text;html=1;align=center;verticalAlign=middle;resizable=0;points=[];autosize=1;strokeColor=none;" vertex="1" parent="1">
                    <mxGeometry x="-580" y="-2120" width="90" height="20" as="geometry"/>
                </mxCell>
                <mxCell id="32" value="" style="curved=1;endArrow=classic;html=1;" edge="1" parent="1" source="15">
                    <mxGeometry width="50" height="50" relative="1" as="geometry">
                        <mxPoint x="-600" y="-2055" as="sourcePoint"/>
                        <mxPoint x="-457" y="-2120" as="targetPoint"/>
                        <Array as="points">
                            <mxPoint x="-577" y="-2055"/>
                        </Array>
                    </mxGeometry>
                </mxCell>
                <mxCell id="36" value="" style="shape=singleArrow;direction=south;whiteSpace=wrap;html=1;gradientColor=none;" vertex="1" parent="1">
                    <mxGeometry x="-390" y="-1940" width="20" height="40" as="geometry"/>
                </mxCell>
                <mxCell id="26" value="" style="curved=1;endArrow=classic;html=1;exitX=0.982;exitY=0.5;exitDx=0;exitDy=0;exitPerimeter=0;" edge="1" parent="1" source="14">
                    <mxGeometry width="50" height="50" relative="1" as="geometry">
                        <mxPoint x="-603" y="-2115" as="sourcePoint"/>
                        <mxPoint x="-460" y="-2180" as="targetPoint"/>
                        <Array as="points">
                            <mxPoint x="-580" y="-2115"/>
                            <mxPoint x="-510" y="-2165"/>
                        </Array>
                    </mxGeometry>
                </mxCell>
                <mxCell id="48" value="" style="group" vertex="1" connectable="0" parent="1">
                    <mxGeometry x="-600" y="-1936.0310678118651" width="102.07" height="32.071067811865305" as="geometry"/>
                </mxCell>
                <mxCell id="46" value="" style="group" vertex="1" connectable="0" parent="48">
                    <mxGeometry width="32.071067811865476" height="32.071067811865305" as="geometry"/>
                </mxCell>
                <mxCell id="44" value="" style="verticalLabelPosition=bottom;verticalAlign=top;html=1;shape=mxgraph.basic.arc;startAngle=0.3;endAngle=0.1;gradientColor=none;" vertex="1" parent="46">
                    <mxGeometry y="2.071067811865305" width="30" height="30" as="geometry"/>
                </mxCell>
                <mxCell id="45" value="" style="verticalLabelPosition=bottom;verticalAlign=top;html=1;shape=mxgraph.basic.acute_triangle;dx=0.5;gradientColor=none;rotation=-225;" vertex="1" parent="46">
                    <mxGeometry x="20" y="2.071067811865305" width="10" height="10" as="geometry"/>
                </mxCell>
                <mxCell id="47" value="EventLoop&lt;br&gt;" style="text;html=1;align=center;verticalAlign=middle;resizable=0;points=[];autosize=1;strokeColor=none;" vertex="1" parent="48">
                    <mxGeometry x="32.06999999999999" y="6.031067811865341" width="70" height="20" as="geometry"/>
                </mxCell>
            </root>
        </mxGraphModel>
    </diagram>
</mxfile>